<svg xmlns="http://www.w3.org/2000/svg" width="1200" height="800" viewBox="0 0 1200 800" fill="none">
  <defs>
    <linearGradient id="bg" x1="0" y1="0" x2="1200" y2="800" gradientUnits="userSpaceOnUse">
      <stop stop-color="#0b1020"/>
      <stop offset="0.5" stop-color="#1e1b4b"/>
      <stop offset="1" stop-color="#3b0764"/>
    </linearGradient>
    <radialGradient id="glow" cx="0.8" cy="0.2" r="0.8">
      <stop stop-color="#a855f7" stop-opacity="0.45"/>
      <stop offset="1" stop-color="#a855f7" stop-opacity="0"/>
    </radialGradient>
    <linearGradient id="accent" x1="0" y1="0" x2="1" y2="1">
      <stop stop-color="#c4b5fd"/>
      <stop offset="1" stop-color="#818cf8"/>
    </linearGradient>
  </defs>
  <rect width="1200" height="800" fill="url(#bg)"/>
  <rect width="1200" height="800" fill="url(#glow)"/>
  <g stroke="#ffffff" stroke-opacity="0.05">
    <path d="M0 200H1200M0 400H1200M0 600H1200M300 0V800M600 0V800M900 0V800"/>
  </g>
  <text x="80" y="150" fill="#c4b5fd" font-family="monospace" font-size="28" letter-spacing="6">AI RECRUITMENT · REACT NATIVE</text>
  <text x="76" y="340" fill="url(#accent)" font-family="Arial, sans-serif" font-size="150" font-weight="800">GORec</text>
  <text x="80" y="420" fill="#e9d5ff" font-family="Arial, sans-serif" font-size="36" font-weight="300">Conversational AI candidate sourcing — chat, voice &amp; real-time cards.</text>
  <g font-family="monospace" font-size="26" font-weight="600">
    <rect x="80" y="620" width="230" height="64" rx="32" fill="#ffffff" fill-opacity="0.08" stroke="#a855f7" stroke-opacity="0.4"/>
    <text x="195" y="661" fill="#f5f3ff" text-anchor="middle">React Native</text>
    <rect x="330" y="620" width="170" height="64" rx="32" fill="#ffffff" fill-opacity="0.08" stroke="#a855f7" stroke-opacity="0.4"/>
    <text x="415" y="661" fill="#f5f3ff" text-anchor="middle">WebSocket</text>
    <rect x="520" y="620" width="180" height="64" rx="32" fill="#ffffff" fill-opacity="0.08" stroke="#a855f7" stroke-opacity="0.4"/>
    <text x="610" y="661" fill="#f5f3ff" text-anchor="middle">Deepgram</text>
    <rect x="720" y="620" width="190" height="64" rx="32" fill="#ffffff" fill-opacity="0.08" stroke="#a855f7" stroke-opacity="0.4"/>
    <text x="815" y="661" fill="#f5f3ff" text-anchor="middle">RTK Query</text>
  </g>
  <circle cx="1000" cy="200" r="120" fill="none" stroke="#c4b5fd" stroke-opacity="0.25" stroke-width="2"/>
  <circle cx="1000" cy="200" r="80" fill="none" stroke="#a855f7" stroke-opacity="0.4" stroke-width="2"/>
  <circle cx="1000" cy="200" r="14" fill="#c4b5fd"/>
</svg>
