<svg xmlns="http://www.w3.org/2000/svg" width="1200" height="800" viewBox="0 0 1200 800" fill="none">
  <defs>
    <linearGradient id="bg" x1="0" y1="0" x2="1200" y2="800" gradientUnits="userSpaceOnUse">
      <stop stop-color="#0a0f1f"/>
      <stop offset="0.5" stop-color="#0c1b3a"/>
      <stop offset="1" stop-color="#172554"/>
    </linearGradient>
    <radialGradient id="glow" cx="0.8" cy="0.2" r="0.8">
      <stop stop-color="#3b82f6" stop-opacity="0.45"/>
      <stop offset="1" stop-color="#3b82f6" stop-opacity="0"/>
    </radialGradient>
    <linearGradient id="accent" x1="0" y1="0" x2="1" y2="1">
      <stop stop-color="#93c5fd"/>
      <stop offset="1" stop-color="#818cf8"/>
    </linearGradient>
  </defs>
  <rect width="1200" height="800" fill="url(#bg)"/>
  <rect width="1200" height="800" fill="url(#glow)"/>
  <g stroke="#ffffff" stroke-opacity="0.05">
    <path d="M0 200H1200M0 400H1200M0 600H1200M300 0V800M600 0V800M900 0V800"/>
  </g>
  <text x="80" y="150" fill="#93c5fd" font-family="monospace" font-size="28" letter-spacing="6">AI VOICE INTERVIEWS · DB-PER-TENANT</text>
  <text x="76" y="330" fill="url(#accent)" font-family="Arial, sans-serif" font-size="140" font-weight="800">Interview AI</text>
  <text x="80" y="410" fill="#dbeafe" font-family="Arial, sans-serif" font-size="34" font-weight="300">Voice ingestion · LLM scoring · OCR + Pinecone · PDF reports.</text>
  <g font-family="monospace" font-size="26" font-weight="600">
    <rect x="80" y="620" width="150" height="64" rx="32" fill="#ffffff" fill-opacity="0.08" stroke="#3b82f6" stroke-opacity="0.4"/>
    <text x="155" y="661" fill="#eff6ff" text-anchor="middle">NestJS</text>
    <rect x="250" y="620" width="160" height="64" rx="32" fill="#ffffff" fill-opacity="0.08" stroke="#3b82f6" stroke-opacity="0.4"/>
    <text x="330" y="661" fill="#eff6ff" text-anchor="middle">OpenAI</text>
    <rect x="430" y="620" width="170" height="64" rx="32" fill="#ffffff" fill-opacity="0.08" stroke="#3b82f6" stroke-opacity="0.4"/>
    <text x="515" y="661" fill="#eff6ff" text-anchor="middle">Pinecone</text>
    <rect x="620" y="620" width="160" height="64" rx="32" fill="#ffffff" fill-opacity="0.08" stroke="#3b82f6" stroke-opacity="0.4"/>
    <text x="700" y="661" fill="#eff6ff" text-anchor="middle">BullMQ</text>
    <rect x="800" y="620" width="140" height="64" rx="32" fill="#ffffff" fill-opacity="0.08" stroke="#3b82f6" stroke-opacity="0.4"/>
    <text x="870" y="661" fill="#eff6ff" text-anchor="middle">Redis</text>
  </g>
  <g transform="translate(1000 200)" fill="#93c5fd" fill-opacity="0.55">
    <rect x="-6" y="-55" width="12" height="50" rx="6"/>
    <path d="M-30 -10a30 35 0 0 0 60 0" fill="none" stroke="#93c5fd" stroke-opacity="0.55" stroke-width="6" stroke-linecap="round"/>
    <rect x="-3" y="20" width="6" height="22"/>
    <rect x="-26" y="42" width="52" height="8" rx="4"/>
  </g>
  <circle cx="1000" cy="200" r="115" fill="none" stroke="#818cf8" stroke-opacity="0.25" stroke-width="2"/>
</svg>
