<svg xmlns="http://www.w3.org/2000/svg" width="1200" height="800" viewBox="0 0 1200 800" fill="none">
  <defs>
    <linearGradient id="bg" x1="0" y1="0" x2="1200" y2="800" gradientUnits="userSpaceOnUse">
      <stop stop-color="#1a0e03"/>
      <stop offset="0.5" stop-color="#3b1d05"/>
      <stop offset="1" stop-color="#7c2d12"/>
    </linearGradient>
    <radialGradient id="glow" cx="0.8" cy="0.2" r="0.8">
      <stop stop-color="#f59e0b" stop-opacity="0.45"/>
      <stop offset="1" stop-color="#f59e0b" stop-opacity="0"/>
    </radialGradient>
    <linearGradient id="accent" x1="0" y1="0" x2="1" y2="1">
      <stop stop-color="#fcd34d"/>
      <stop offset="1" stop-color="#fb923c"/>
    </linearGradient>
  </defs>
  <rect width="1200" height="800" fill="url(#bg)"/>
  <rect width="1200" height="800" fill="url(#glow)"/>
  <g stroke="#ffffff" stroke-opacity="0.05">
    <path d="M0 200H1200M0 400H1200M0 600H1200M300 0V800M600 0V800M900 0V800"/>
  </g>
  <text x="80" y="150" fill="#fcd34d" font-family="monospace" font-size="28" letter-spacing="6">OPEN API · BATCH AI VOICE CALLING</text>
  <text x="76" y="330" fill="url(#accent)" font-family="Arial, sans-serif" font-size="128" font-weight="800">Edysor Voice</text>
  <text x="80" y="410" fill="#ffedd5" font-family="Arial, sans-serif" font-size="34" font-weight="300">ElevenLabs-style REST API · 23+ endpoints · API-key gateway.</text>
  <g font-family="monospace" font-size="26" font-weight="600">
    <rect x="80" y="620" width="160" height="64" rx="32" fill="#ffffff" fill-opacity="0.08" stroke="#f59e0b" stroke-opacity="0.4"/>
    <text x="160" y="661" fill="#fff7ed" text-anchor="middle">Node.js</text>
    <rect x="260" y="620" width="160" height="64" rx="32" fill="#ffffff" fill-opacity="0.08" stroke="#f59e0b" stroke-opacity="0.4"/>
    <text x="340" y="661" fill="#fff7ed" text-anchor="middle">Fastify</text>
    <rect x="440" y="620" width="250" height="64" rx="32" fill="#ffffff" fill-opacity="0.08" stroke="#f59e0b" stroke-opacity="0.4"/>
    <text x="565" y="661" fill="#fff7ed" text-anchor="middle">Microservices</text>
    <rect x="710" y="620" width="150" height="64" rx="32" fill="#ffffff" fill-opacity="0.08" stroke="#f59e0b" stroke-opacity="0.4"/>
    <text x="785" y="661" fill="#fff7ed" text-anchor="middle">MySQL</text>
  </g>
  <g transform="translate(1000 200)" stroke="#fcd34d" stroke-opacity="0.55" stroke-width="6" fill="none" stroke-linecap="round">
    <path d="M-45 25c-8 -18 -8 -32 0 -50 6 -14 22 -22 38 -16l14 26c4 8 2 14 -6 18l-12 6c8 16 16 24 32 32l6 -12c4 -8 10 -10 18 -6l26 14c6 16 -2 32 -16 38 -18 8 -32 8 -50 0"/>
  </g>
  <circle cx="1000" cy="200" r="115" fill="none" stroke="#fb923c" stroke-opacity="0.25" stroke-width="2"/>
</svg>
