<svg xmlns="http://www.w3.org/2000/svg" width="1200" height="800" viewBox="0 0 1200 800" fill="none">
  <defs>
    <linearGradient id="bg" x1="0" y1="0" x2="1200" y2="800" gradientUnits="userSpaceOnUse">
      <stop stop-color="#04130f"/>
      <stop offset="0.5" stop-color="#042f2e"/>
      <stop offset="1" stop-color="#064e3b"/>
    </linearGradient>
    <radialGradient id="glow" cx="0.8" cy="0.2" r="0.8">
      <stop stop-color="#10b981" stop-opacity="0.4"/>
      <stop offset="1" stop-color="#10b981" stop-opacity="0"/>
    </radialGradient>
    <linearGradient id="accent" x1="0" y1="0" x2="1" y2="1">
      <stop stop-color="#6ee7b7"/>
      <stop offset="1" stop-color="#2dd4bf"/>
    </linearGradient>
  </defs>
  <rect width="1200" height="800" fill="url(#bg)"/>
  <rect width="1200" height="800" fill="url(#glow)"/>
  <g stroke="#ffffff" stroke-opacity="0.05">
    <path d="M0 200H1200M0 400H1200M0 600H1200M300 0V800M600 0V800M900 0V800"/>
  </g>
  <text x="80" y="150" fill="#6ee7b7" font-family="monospace" font-size="28" letter-spacing="6">HEALTHCARE SaaS · MULTI-TENANT BACKEND</text>
  <text x="76" y="330" fill="url(#accent)" font-family="Arial, sans-serif" font-size="138" font-weight="800">Clinic Cloud</text>
  <text x="80" y="410" fill="#d1fae5" font-family="Arial, sans-serif" font-size="34" font-weight="300">27+ modules · ABDM/ABHA · Razorpay · WhatsApp bot · AWS CI/CD.</text>
  <g font-family="monospace" font-size="26" font-weight="600">
    <rect x="80" y="620" width="150" height="64" rx="32" fill="#ffffff" fill-opacity="0.08" stroke="#10b981" stroke-opacity="0.4"/>
    <text x="155" y="661" fill="#ecfdf5" text-anchor="middle">NestJS</text>
    <rect x="250" y="620" width="210" height="64" rx="32" fill="#ffffff" fill-opacity="0.08" stroke="#10b981" stroke-opacity="0.4"/>
    <text x="355" y="661" fill="#ecfdf5" text-anchor="middle">PostgreSQL</text>
    <rect x="480" y="620" width="150" height="64" rx="32" fill="#ffffff" fill-opacity="0.08" stroke="#10b981" stroke-opacity="0.4"/>
    <text x="555" y="661" fill="#ecfdf5" text-anchor="middle">Prisma</text>
    <rect x="650" y="620" width="140" height="64" rx="32" fill="#ffffff" fill-opacity="0.08" stroke="#10b981" stroke-opacity="0.4"/>
    <text x="720" y="661" fill="#ecfdf5" text-anchor="middle">Redis</text>
    <rect x="810" y="620" width="120" height="64" rx="32" fill="#ffffff" fill-opacity="0.08" stroke="#10b981" stroke-opacity="0.4"/>
    <text x="870" y="661" fill="#ecfdf5" text-anchor="middle">AWS</text>
  </g>
  <g transform="translate(1000 200)" stroke="#6ee7b7" stroke-opacity="0.5" stroke-width="6" stroke-linecap="round">
    <path d="M-50 0H-15L-5 -30L15 30L25 0H50"/>
  </g>
  <circle cx="1000" cy="200" r="115" fill="none" stroke="#2dd4bf" stroke-opacity="0.25" stroke-width="2"/>
</svg>
